<?xml version="1.0" encoding="UTF-8" standalone="no"?>
<!DOCTYPE svg PUBLIC "-//W3C//DTD SVG 1.1//EN"
 "http://www.w3.org/Graphics/SVG/1.1/DTD/svg11.dtd">
<!-- Generated by graphviz version 2.38.0 (20140413.2041)
 -->
<!-- Title: querytree Pages: 1 -->
<svg width="239pt" height="260pt"
 viewBox="0.00 0.00 239.40 260.00" xmlns="http://www.w3.org/2000/svg" xmlns:xlink="http://www.w3.org/1999/xlink">
<g id="graph0" class="graph" transform="scale(1 1) rotate(0) translate(4 256)">
<title>querytree</title>
<polygon fill="white" stroke="none" points="-4,4 -4,-256 235.396,-256 235.396,4 -4,4"/>
<!-- And -->
<g id="node1" class="node"><title>And</title>
<polygon fill="#f7f7f7" stroke="#f7f7f7" points="109.396,-252 55.3965,-252 55.3965,-216 109.396,-216 109.396,-252"/>
<text text-anchor="middle" x="82.3965" y="-229.8" font-family="Helvetica,sans-Serif" font-size="14.00" fill="#d3335c">And</text>
</g>
<!-- IsNotNull -->
<g id="node2" class="node"><title>IsNotNull</title>
<polygon fill="#f7f7f7" stroke="#f7f7f7" points="72.6897,-180 0.103222,-180 0.103222,-144 72.6897,-144 72.6897,-180"/>
<text text-anchor="middle" x="36.3965" y="-157.8" font-family="Helvetica,sans-Serif" font-size="14.00" fill="#d3335c">IsNotNull</text>
</g>
<!-- And&#45;&gt;IsNotNull -->
<g id="edge1" class="edge"><title>And&#45;&gt;IsNotNull</title>
<path fill="none" stroke="black" d="M71.0257,-215.697C63.8955,-204.846 54.7418,-190.917 47.6365,-180.104"/>
</g>
<!-- LessThan -->
<g id="node5" class="node"><title>LessThan</title>
<polygon fill="#f7f7f7" stroke="#f7f7f7" points="168.38,-180 90.4126,-180 90.4126,-144 168.38,-144 168.38,-180"/>
<text text-anchor="middle" x="129.396" y="-157.8" font-family="Helvetica,sans-Serif" font-size="14.00" fill="#d3335c">LessThan</text>
</g>
<!-- And&#45;&gt;LessThan -->
<g id="edge2" class="edge"><title>And&#45;&gt;LessThan</title>
<path fill="none" stroke="black" d="M94.0145,-215.697C101.3,-204.846 110.652,-190.917 117.912,-180.104"/>
</g>
<!-- NameItem -->
<g id="node3" class="node"><title>NameItem</title>
<polygon fill="#f7f7f7" stroke="#f7f7f7" points="63.3965,-108 9.39648,-108 9.39648,-72 63.3965,-72 63.3965,-108"/>
<text text-anchor="middle" x="36.3965" y="-85.8" font-family="Helvetica,sans-Serif" font-size="14.00" fill="#d3335c">Item</text>
</g>
<!-- IsNotNull&#45;&gt;NameItem -->
<g id="edge3" class="edge"><title>IsNotNull&#45;&gt;NameItem</title>
<path fill="none" stroke="black" d="M36.3965,-143.697C36.3965,-132.846 36.3965,-118.917 36.3965,-108.104"/>
</g>
<!-- NameLiteral -->
<g id="node4" class="node"><title>NameLiteral</title>
<polygon fill="#f7f7f7" stroke="#f7f7f7" points="63.3965,-36 9.39648,-36 9.39648,-0 63.3965,-0 63.3965,-36"/>
<text text-anchor="middle" x="36.3965" y="-13.8" font-family="Helvetica,sans-Serif" font-size="14.00" fill="#d3335c">name</text>
</g>
<!-- NameItem&#45;&gt;NameLiteral -->
<g id="edge4" class="edge"><title>NameItem&#45;&gt;NameLiteral</title>
<path fill="none" stroke="black" d="M36.3965,-71.6966C36.3965,-60.8463 36.3965,-46.9167 36.3965,-36.1043"/>
</g>
<!-- BirthYearItem -->
<g id="node6" class="node"><title>BirthYearItem</title>
<polygon fill="#f7f7f7" stroke="#f7f7f7" points="152.396,-108 98.3965,-108 98.3965,-72 152.396,-72 152.396,-108"/>
<text text-anchor="middle" x="125.396" y="-85.8" font-family="Helvetica,sans-Serif" font-size="14.00" fill="#d3335c">Item</text>
</g>
<!-- LessThan&#45;&gt;BirthYearItem -->
<g id="edge5" class="edge"><title>LessThan&#45;&gt;BirthYearItem</title>
<path fill="none" stroke="black" d="M128.408,-143.697C127.788,-132.846 126.992,-118.917 126.374,-108.104"/>
</g>
<!-- Literal -->
<g id="node8" class="node"><title>Literal</title>
<polygon fill="#f7f7f7" stroke="#f7f7f7" points="228.528,-108 174.265,-108 174.265,-72 228.528,-72 228.528,-108"/>
<text text-anchor="middle" x="201.396" y="-85.8" font-family="Helvetica,sans-Serif" font-size="14.00" fill="#d3335c">Literal</text>
</g>
<!-- LessThan&#45;&gt;Literal -->
<g id="edge6" class="edge"><title>LessThan&#45;&gt;Literal</title>
<path fill="none" stroke="black" d="M147.194,-143.697C158.355,-132.846 172.682,-118.917 183.803,-108.104"/>
</g>
<!-- BirthYearItemLiteral -->
<g id="node7" class="node"><title>BirthYearItemLiteral</title>
<polygon fill="#f7f7f7" stroke="#f7f7f7" points="158.92,-36 87.8734,-36 87.8734,-0 158.92,-0 158.92,-36"/>
<text text-anchor="middle" x="123.396" y="-13.8" font-family="Helvetica,sans-Serif" font-size="14.00" fill="#d3335c">birthYear</text>
</g>
<!-- BirthYearItem&#45;&gt;BirthYearItemLiteral -->
<g id="edge7" class="edge"><title>BirthYearItem&#45;&gt;BirthYearItemLiteral</title>
<path fill="none" stroke="black" d="M124.902,-71.6966C124.592,-60.8463 124.194,-46.9167 123.885,-36.1043"/>
</g>
<!-- Literal1910 -->
<g id="node9" class="node"><title>Literal1910</title>
<polygon fill="#f7f7f7" stroke="#f7f7f7" points="231.396,-36 177.396,-36 177.396,-0 231.396,-0 231.396,-36"/>
<text text-anchor="middle" x="204.396" y="-13.8" font-family="Helvetica,sans-Serif" font-size="14.00" fill="#d3335c">1910</text>
</g>
<!-- Literal&#45;&gt;Literal1910 -->
<g id="edge8" class="edge"><title>Literal&#45;&gt;Literal1910</title>
<path fill="none" stroke="black" d="M202.138,-71.6966C202.603,-60.8463 203.2,-46.9167 203.663,-36.1043"/>
</g>
</g>
</svg>
